<?xml version="1.0" standalone="no"?>
<!DOCTYPE svg PUBLIC "-//W3C//DTD SVG 20010904//EN"
 "http://www.w3.org/TR/2001/REC-SVG-20010904/DTD/svg10.dtd">
<svg version="1.0" xmlns="http://www.w3.org/2000/svg"
 width="1200.000000pt" height="600.000000pt" viewBox="0 0 1200.000000 600.000000"
 preserveAspectRatio="xMidYMid meet">

<g transform="translate(0.000000,600.000000) scale(0.100000,-0.100000)"
fill="#000000" stroke="none">
<path d="M2325 4729 c-285 -42 -541 -243 -680 -534 -40 -86 -88 -240 -112
-360 -26 -138 -24 -406 5 -553 32 -159 82 -304 158 -463 52 -108 64 -140 56
-155 -38 -72 -17 -186 45 -246 74 -73 169 -88 260 -43 76 38 123 117 123 205
0 55 -43 135 -90 169 -40 29 -114 52 -155 48 -45 -4 -172 306 -211 513 -24
130 -24 392 0 515 53 280 194 517 367 618 71 42 196 84 286 97 240 35 446 -94
581 -365 44 -88 90 -224 99 -294 3 -26 9 -52 13 -60 4 -8 41 -24 81 -36 41
-12 83 -24 95 -28 24 -8 24 -8 -2 150 -69 433 -344 754 -704 819 -84 15 -128
16 -215 3z"/>
<path d="M8040 3695 c0 -261 -2 -315 -14 -315 -7 0 -19 6 -25 14 -28 33 -134
69 -220 74 -289 16 -505 -185 -562 -522 -15 -86 -6 -286 16 -376 25 -103 88
-223 149 -284 80 -80 148 -109 267 -114 146 -6 235 24 348 118 l60 50 17 -53
c30 -94 36 -97 196 -97 l138 0 0 910 0 910 -185 0 -185 0 0 -315z m-90 -526
c25 -11 55 -30 68 -41 22 -21 22 -25 22 -284 l0 -263 -31 -35 c-70 -80 -210
-113 -294 -70 -76 39 -115 154 -115 336 0 182 47 306 135 355 53 30 151 31
215 2z"/>
<path d="M4590 3076 l0 -886 205 0 205 0 0 326 0 326 84 -3 c65 -3 89 -8 105
-23 11 -10 91 -141 177 -291 85 -150 169 -286 185 -301 l30 -29 226 -3 226 -3
-15 23 c-8 13 -93 151 -188 308 -197 323 -209 340 -266 378 l-42 28 67 34 c79
40 184 143 223 216 40 74 58 156 58 259 0 207 -85 347 -263 435 -149 73 -209
81 -639 87 l-378 5 0 -886z m682 563 c72 -15 133 -52 165 -100 20 -31 27 -56
31 -114 6 -96 -10 -153 -60 -210 -57 -65 -121 -86 -280 -92 l-128 -6 0 267 0
266 110 0 c60 0 133 -5 162 -11z"/>
<path d="M2150 3784 c-80 -35 -133 -116 -133 -204 0 -211 275 -302 398 -132
17 23 41 45 55 48 41 12 298 -14 410 -41 269 -66 522 -206 696 -388 258 -267
342 -565 229 -805 -148 -313 -465 -424 -862 -301 l-102 32 -38 -34 c-21 -19
-60 -50 -86 -69 l-48 -34 36 -18 c50 -26 197 -73 280 -89 99 -20 311 -18 408
4 228 50 436 186 546 356 146 226 128 575 -43 856 -262 431 -793 715 -1338
715 l-115 0 -31 39 c-59 74 -175 103 -262 65z"/>
<path d="M6390 3444 c-197 -52 -352 -200 -416 -397 -24 -72 -27 -99 -27 -212
-1 -150 20 -244 79 -355 68 -130 182 -227 324 -276 146 -51 383 -44 537 16 70
27 179 96 217 139 19 20 18 21 -25 77 -75 98 -94 114 -131 114 -18 0 -67 -16
-108 -36 -110 -54 -145 -64 -221 -64 -143 0 -239 68 -279 198 -35 113 -76 102
363 102 464 0 422 -16 421 159 0 99 -5 128 -28 195 -61 179 -184 294 -363 340
-77 20 -267 20 -343 0z m288 -261 c61 -29 112 -113 112 -187 l0 -26 -235 0
-234 0 13 45 c21 67 62 131 100 155 66 40 172 46 244 13z"/>
<path d="M8610 3002 c0 -369 3 -458 15 -507 36 -141 109 -234 223 -288 56 -26
82 -32 158 -35 142 -7 253 27 343 105 22 18 43 33 49 33 5 0 14 -18 21 -41 23
-75 32 -79 191 -79 l140 0 0 630 0 630 -187 -2 -188 -3 -3 -452 -2 -452 -45
-31 c-128 -88 -258 -79 -315 21 l-25 44 -3 438 -3 437 -184 0 -185 0 0 -448z"/>
<path d="M9840 3446 c0 -4 90 -142 201 -307 l200 -300 -33 -52 c-18 -29 -112
-175 -210 -324 l-177 -273 188 0 187 0 31 33 c17 17 76 111 132 207 55 96 104
181 109 189 5 9 45 -52 127 -193 66 -114 130 -214 142 -222 19 -12 60 -14 222
-12 l198 3 -208 329 c-115 181 -205 334 -202 340 4 6 94 138 200 292 106 155
193 285 193 288 0 3 -77 6 -170 6 -122 0 -180 -4 -204 -14 -33 -14 -49 -38
-202 -314 l-51 -92 -116 193 c-64 107 -124 200 -133 208 -13 11 -64 15 -221
17 -111 2 -203 1 -203 -2z"/>
<path d="M1274 3272 c-266 -222 -398 -481 -397 -777 2 -266 109 -481 306 -612
228 -152 537 -184 876 -91 418 114 761 385 975 770 33 60 42 69 79 80 85 25
157 127 157 219 0 40 -32 114 -63 147 -72 78 -197 90 -288 29 -100 -67 -126
-218 -55 -312 l25 -33 -48 -80 c-138 -229 -334 -404 -618 -550 -186 -95 -333
-132 -526 -132 -215 0 -355 48 -472 161 -112 108 -175 258 -175 419 0 190 82
362 256 535 l84 83 -25 92 c-13 51 -26 94 -28 97 -3 2 -31 -18 -63 -45z"/>
</g>
</svg>
